<svg width="45" height="26" viewBox="0 0 45 26" fill="none" xmlns="http://www.w3.org/2000/svg">
<path d="M21.1199 1.51125L0.875488 22.7583C0.53753 23.1128 0.348999 23.5838 0.348999 24.0736C0.348999 24.5634 0.53753 25.0344 0.875488 25.3889L0.898363 25.4118C1.0622 25.5843 1.25941 25.7216 1.47799 25.8154C1.69657 25.9093 1.93196 25.9577 2.16983 25.9577C2.40771 25.9577 2.64309 25.9093 2.86168 25.8154C3.08026 25.7216 3.27746 25.5843 3.4413 25.4118L22.5038 5.40381L41.5587 25.4118C41.7225 25.5843 41.9197 25.7216 42.1383 25.8154C42.3569 25.9093 42.5923 25.9577 42.8301 25.9577C43.068 25.9577 43.3034 25.9093 43.522 25.8154C43.7406 25.7216 43.9378 25.5843 44.1016 25.4118L44.1245 25.3889C44.4624 25.0344 44.651 24.5634 44.651 24.0736C44.651 23.5838 44.4624 23.1128 44.1245 22.7583L23.8801 1.51125C23.7021 1.32439 23.488 1.17563 23.2507 1.07399C23.0135 0.972341 22.7581 0.91993 22.5 0.91993C22.2419 0.91993 21.9865 0.972341 21.7493 1.07399C21.512 1.17563 21.2979 1.32439 21.1199 1.51125Z" fill="black"/>
</svg>
