<svg width="60" height="60" viewBox="0 0 60 60" fill="none" xmlns="http://www.w3.org/2000/svg">
<path d="M7.5 11.2575C7.50003 10.5698 7.68918 9.89528 8.04677 9.30782C8.40436 8.72035 8.91662 8.24254 9.52751 7.92664C10.1384 7.61074 10.8244 7.46892 11.5105 7.51669C12.1966 7.56447 12.8563 7.79999 13.4175 8.1975L39.6675 26.8088C40.1551 27.1535 40.5533 27.6098 40.829 28.1396C41.1047 28.6693 41.2498 29.2573 41.2524 29.8545C41.255 30.4517 41.1149 31.0409 40.8438 31.573C40.5727 32.1051 40.1784 32.5648 39.6937 32.9137L13.4438 51.8025C12.8837 52.2064 12.2231 52.4479 11.5346 52.5003C10.8461 52.5527 10.1565 52.414 9.54185 52.0995C8.92716 51.785 8.41125 51.3069 8.05097 50.7178C7.69068 50.1288 7.50002 49.4517 7.5 48.7612V11.2575ZM52.5 9.375C52.5 8.87772 52.3025 8.40081 51.9508 8.04918C51.5992 7.69754 51.1223 7.5 50.625 7.5C50.1277 7.5 49.6508 7.69754 49.2992 8.04918C48.9475 8.40081 48.75 8.87772 48.75 9.375V50.625C48.75 51.1223 48.9475 51.5992 49.2992 51.9508C49.6508 52.3025 50.1277 52.5 50.625 52.5C51.1223 52.5 51.5992 52.3025 51.9508 51.9508C52.3025 51.5992 52.5 51.1223 52.5 50.625V9.375Z" fill="#1A1A1A"/>
</svg>
