<svg width="37" height="37" viewBox="0 0 37 37" fill="none" xmlns="http://www.w3.org/2000/svg">
<path d="M13.875 7.70834H10.7917C9.94023 7.70834 9.25 8.39856 9.25 9.25V27.75C9.25 28.6014 9.94023 29.2917 10.7917 29.2917H13.875C14.7264 29.2917 15.4167 28.6014 15.4167 27.75V9.25C15.4167 8.39856 14.7264 7.70834 13.875 7.70834Z" fill="#1A1A1A"/>
<path d="M26.2083 7.70834H23.1249C22.2735 7.70834 21.5833 8.39856 21.5833 9.25V27.75C21.5833 28.6014 22.2735 29.2917 23.1249 29.2917H26.2083C27.0597 29.2917 27.7499 28.6014 27.7499 27.75V9.25C27.7499 8.39856 27.0597 7.70834 26.2083 7.70834Z" fill="#1A1A1A"/>
</svg>
