<svg width="48" height="55" viewBox="0 0 48 55" fill="none" xmlns="http://www.w3.org/2000/svg">
<path d="M4.45875 1.06855C4.13612 0.877267 3.76861 0.77478 3.39356 0.771504C3.0185 0.768229 2.64926 0.864282 2.32334 1.0499C1.99742 1.23553 1.72644 1.50411 1.53792 1.82836C1.3494 2.15261 1.25007 2.52098 1.25 2.89605V52.104C1.25007 52.479 1.3494 52.8474 1.53792 53.1717C1.72644 53.4959 1.99742 53.7645 2.32334 53.9501C2.64926 54.1357 3.0185 54.2318 3.39356 54.2285C3.76861 54.2252 4.13612 54.1227 4.45875 53.9315L45.9777 29.3275C46.2948 29.1394 46.5575 28.8719 46.7399 28.5515C46.9224 28.2311 47.0183 27.8687 47.0183 27.5C47.0183 27.1313 46.9224 26.7689 46.7399 26.4485C46.5575 26.1281 46.2948 25.8607 45.9777 25.6725L4.45875 1.06855Z" fill="black" stroke="black" stroke-width="1.5" stroke-linecap="round" stroke-linejoin="round"/>
</svg>
