<svg width="71" height="49" viewBox="0 0 71 49" fill="none" xmlns="http://www.w3.org/2000/svg">
<path fill-rule="evenodd" clip-rule="evenodd" d="M0.96875 3.25C0.96875 2.54552 1.2486 1.86989 1.74675 1.37175C2.24489 0.873604 2.92052 0.59375 3.625 0.59375H67.375C68.0795 0.59375 68.7551 0.873604 69.2533 1.37175C69.7514 1.86989 70.0312 2.54552 70.0312 3.25C70.0312 3.95448 69.7514 4.63011 69.2533 5.12825C68.7551 5.6264 68.0795 5.90625 67.375 5.90625H3.625C2.92052 5.90625 2.24489 5.6264 1.74675 5.12825C1.2486 4.63011 0.96875 3.95448 0.96875 3.25ZM0.96875 17.4167C0.96875 16.7122 1.2486 16.0366 1.74675 15.5384C2.24489 15.0403 2.92052 14.7604 3.625 14.7604H67.375C68.0795 14.7604 68.7551 15.0403 69.2533 15.5384C69.7514 16.0366 70.0312 16.7122 70.0312 17.4167C70.0312 18.1211 69.7514 18.7968 69.2533 19.2949C68.7551 19.7931 68.0795 20.0729 67.375 20.0729H3.625C2.92052 20.0729 2.24489 19.7931 1.74675 19.2949C1.2486 18.7968 0.96875 18.1211 0.96875 17.4167ZM0.96875 31.5833C0.96875 30.8789 1.2486 30.2032 1.74675 29.7051C2.24489 29.2069 2.92052 28.9271 3.625 28.9271H31.9583C32.6628 28.9271 33.3384 29.2069 33.8366 29.7051C34.3347 30.2032 34.6146 30.8789 34.6146 31.5833C34.6146 32.2878 34.3347 32.9634 33.8366 33.4616C33.3384 33.9597 32.6628 34.2396 31.9583 34.2396H3.625C2.92052 34.2396 2.24489 33.9597 1.74675 33.4616C1.2486 32.9634 0.96875 32.2878 0.96875 31.5833ZM0.96875 45.75C0.96875 45.0455 1.2486 44.3699 1.74675 43.8717C2.24489 43.3736 2.92052 43.0938 3.625 43.0938H31.9583C32.6628 43.0938 33.3384 43.3736 33.8366 43.8717C34.3347 44.3699 34.6146 45.0455 34.6146 45.75C34.6146 46.4545 34.3347 47.1301 33.8366 47.6283C33.3384 48.1264 32.6628 48.4062 31.9583 48.4062H3.625C2.92052 48.4062 2.24489 48.1264 1.74675 47.6283C1.2486 47.1301 0.96875 46.4545 0.96875 45.75Z" fill="black"/>
</svg>
