<svg width="61" height="61" viewBox="0 0 61 61" fill="none" xmlns="http://www.w3.org/2000/svg">
<path d="M24.245 38.7096C20.1817 38.7096 16.7378 37.2981 13.9131 34.4752C11.0902 31.6539 9.67871 28.2108 9.67871 24.1458C9.67871 20.0809 11.0902 16.6369 13.9131 13.814C16.7361 10.991 20.18 9.58038 24.245 9.58208C28.31 9.58377 31.7531 10.9952 34.5743 13.8165C37.3956 16.6377 38.8071 20.0809 38.8088 24.1458C38.8088 25.9114 38.4961 27.6203 37.8709 29.2724C37.2456 30.9245 36.4238 32.3376 35.4055 33.5119L50.4242 48.5255C50.6614 48.7627 50.7885 49.055 50.8054 49.4024C50.8207 49.7463 50.6936 50.0539 50.4242 50.325C50.1531 50.5961 49.8531 50.7317 49.5244 50.7317C49.1957 50.7317 48.8958 50.5961 48.6247 50.325L33.6085 35.3088C32.3377 36.3916 30.8762 37.2295 29.2241 37.8225C27.572 38.4156 25.9115 38.7121 24.2425 38.7121M24.2425 36.1705C27.6144 36.1705 30.4619 35.0098 32.785 32.6884C35.1064 30.367 36.2671 27.5195 36.2671 24.1458C36.2671 20.7722 35.1072 17.9255 32.7875 15.6058C30.4678 13.2861 27.6212 12.1254 24.2475 12.1237C20.8739 12.1237 18.0264 13.2844 15.705 15.6058C13.3836 17.9272 12.2221 20.7739 12.2204 24.1458C12.2187 27.5178 13.3794 30.3644 15.7025 32.6858C18.0255 35.0072 20.8722 36.1679 24.2425 36.1679" fill="black"/>
</svg>
