<svg width="7" height="41" viewBox="0 0 7 41" fill="none" xmlns="http://www.w3.org/2000/svg">
<path d="M0.164062 3.76074C0.164062 4.64549 0.515526 5.494 1.14114 6.11961C1.76674 6.74522 2.61525 7.09668 3.5 7.09668C4.38475 7.09668 5.23325 6.74522 5.85886 6.11961C6.48447 5.494 6.83594 4.64549 6.83594 3.76074C6.83594 2.876 6.48447 2.02749 5.85886 1.40188C5.23325 0.776269 4.38475 0.424805 3.5 0.424805C2.61525 0.424805 1.76674 0.776269 1.14114 1.40188C0.515526 2.02749 0.164062 2.876 0.164062 3.76074ZM0.164062 20.4404C0.164062 21.3252 0.515526 22.1737 1.14114 22.7993C1.76674 23.4249 2.61525 23.7764 3.5 23.7764C4.38475 23.7764 5.23325 23.4249 5.85886 22.7993C6.48447 22.1737 6.83594 21.3252 6.83594 20.4404C6.83594 19.5557 6.48447 18.7072 5.85886 18.0816C5.23325 17.456 4.38475 17.1045 3.5 17.1045C2.61525 17.1045 1.76674 17.456 1.14114 18.0816C0.515526 18.7072 0.164062 19.5557 0.164062 20.4404ZM0.164062 37.1201C0.164062 38.0049 0.515526 38.8534 1.14114 39.479C1.76674 40.1046 2.61525 40.4561 3.5 40.4561C4.38475 40.4561 5.23325 40.1046 5.85886 39.479C6.48447 38.8534 6.83594 38.0049 6.83594 37.1201C6.83594 36.2354 6.48447 35.3869 5.85886 34.7613C5.23325 34.1356 4.38475 33.7842 3.5 33.7842C2.61525 33.7842 1.76674 34.1356 1.14114 34.7613C0.515526 35.3869 0.164062 36.2354 0.164062 37.1201Z" fill="black"/>
</svg>
